<mxfile host="65bd71144e">
    <diagram id="8jwDnHj-vl6_LvJjjXVG" name="第 1 页">
        <mxGraphModel dx="930" dy="659" grid="1" gridSize="10" guides="1" tooltips="1" connect="1" arrows="1" fold="1" page="1" pageScale="1" pageWidth="827" pageHeight="1169" math="0" shadow="0">
            <root>
                <mxCell id="0"/>
                <mxCell id="1" parent="0"/>
                <mxCell id="2" value="&lt;font style=&quot;font-size: 16px;&quot;&gt;类名&lt;/font&gt;" style="rounded=0;whiteSpace=wrap;html=1;fillColor=none;shadow=1;" parent="1" vertex="1">
                    <mxGeometry x="160" y="120" width="80" height="40" as="geometry"/>
                </mxCell>
                <mxCell id="3" value="&lt;font style=&quot;font-size: 16px;&quot;&gt;hospital&lt;/font&gt;" style="rounded=0;whiteSpace=wrap;html=1;fillColor=none;shadow=1;" parent="1" vertex="1">
                    <mxGeometry x="240" y="120" width="200" height="40" as="geometry"/>
                </mxCell>
                <mxCell id="4" value="&lt;span style=&quot;font-size: 16px;&quot;&gt;医院信息类&lt;/span&gt;" style="rounded=0;whiteSpace=wrap;html=1;fillColor=none;shadow=1;" parent="1" vertex="1">
                    <mxGeometry x="440" y="120" width="200" height="40" as="geometry"/>
                </mxCell>
                <mxCell id="5" value="&lt;font style=&quot;font-size: 16px;&quot;&gt;属性&lt;/font&gt;" style="rounded=0;whiteSpace=wrap;html=1;fillColor=none;shadow=1;" parent="1" vertex="1">
                    <mxGeometry x="160" y="160" width="200" height="40" as="geometry"/>
                </mxCell>
                <mxCell id="6" value="&lt;font style=&quot;font-size: 16px;&quot;&gt;属性名&lt;/font&gt;" style="rounded=0;whiteSpace=wrap;html=1;fillColor=none;shadow=1;" parent="1" vertex="1">
                    <mxGeometry x="360" y="160" width="200" height="40" as="geometry"/>
                </mxCell>
                <mxCell id="7" value="&lt;font style=&quot;font-size: 16px;&quot;&gt;类型&lt;/font&gt;" style="rounded=0;whiteSpace=wrap;html=1;fillColor=none;shadow=1;" parent="1" vertex="1">
                    <mxGeometry x="560" y="160" width="80" height="40" as="geometry"/>
                </mxCell>
                <mxCell id="8" value="&lt;font style=&quot;font-size: 16px;&quot;&gt;hono&lt;/font&gt;" style="rounded=0;whiteSpace=wrap;html=1;fillColor=none;shadow=1;" parent="1" vertex="1">
                    <mxGeometry x="160" y="200" width="200" height="40" as="geometry"/>
                </mxCell>
                <mxCell id="9" value="&lt;span style=&quot;font-size: 16px;&quot;&gt;主键&lt;/span&gt;" style="rounded=0;whiteSpace=wrap;html=1;fillColor=none;shadow=1;" parent="1" vertex="1">
                    <mxGeometry x="360" y="200" width="200" height="40" as="geometry"/>
                </mxCell>
                <mxCell id="10" value="&lt;font style=&quot;font-size: 16px;&quot;&gt;int&lt;/font&gt;" style="rounded=0;whiteSpace=wrap;html=1;fillColor=none;shadow=1;" parent="1" vertex="1">
                    <mxGeometry x="560" y="200" width="80" height="40" as="geometry"/>
                </mxCell>
            </root>
        </mxGraphModel>
    </diagram>
</mxfile>